<svg width="289" height="288" viewBox="0 0 289 288" fill="none" xmlns="http://www.w3.org/2000/svg">
<path d="M136.995 74.6955C138.415 66.2344 150.574 66.2344 151.993 74.6955V74.6955C153.135 81.5005 162.021 83.3892 165.832 77.637V77.637C170.57 70.4848 181.678 75.4304 179.534 83.7374V83.7374C177.809 90.4185 185.158 95.7581 190.979 92.0532V92.0532C198.217 87.4466 206.353 96.4827 201.015 103.199V103.199C196.722 108.601 201.264 116.468 208.089 115.451V115.451C216.575 114.187 220.332 125.751 212.724 129.716V129.716C206.605 132.905 207.555 141.939 214.203 143.786V143.786C222.469 146.082 221.198 158.175 212.635 158.702V158.702C205.748 159.127 202.941 167.766 208.263 172.158V172.158C214.881 177.618 208.801 188.148 200.764 185.147V185.147C194.3 182.733 188.221 189.484 191.297 195.661V195.661C195.122 203.34 185.285 210.487 179.163 204.476V204.476C174.24 199.642 165.941 203.337 166.239 210.231V210.231C166.609 218.802 154.716 221.33 151.568 213.349V213.349C149.036 206.93 139.952 206.93 137.42 213.349V213.349C134.273 221.33 122.379 218.802 122.75 210.231V210.231C123.048 203.337 114.749 199.642 109.825 204.476V204.476C103.703 210.487 93.8661 203.34 97.6909 195.661V195.661C100.767 189.484 94.6885 182.733 88.2244 185.147V185.147C80.187 188.148 74.1073 177.618 80.7251 172.158V172.158C86.0474 167.766 83.2402 159.127 76.3532 158.702V158.702C67.79 158.175 66.5191 146.082 74.7854 143.786V143.786C81.4338 141.939 82.3833 132.905 76.2643 129.716V129.716C68.656 125.751 72.4134 114.187 80.8991 115.451V115.451C87.7238 116.468 92.2659 108.601 87.9729 103.199V103.199C82.635 96.4827 90.7711 87.4466 98.0089 92.0532V92.0532C103.83 95.7581 111.179 90.4185 109.455 83.7374V83.7374C107.31 75.4304 118.418 70.4848 123.156 77.637V77.637C126.967 83.3892 135.853 81.5005 136.995 74.6955V74.6955Z" fill="#0DC271"/>
</svg>
